<svg width="24" height="24" fill="#999999" viewBox="0 0 24 24" fill="none" xmlns="http://www.w3.org/2000/svg">
  <g stroke="currentColor" stroke-width="0.8" stroke-linecap="round" stroke-linejoin="round">
    <!-- Вертикаль (наконечники уменьшены с 3 до 1.5 единиц) -->
    <path d="M12 3V21M12 3L10.5 4.5M12 3L13.5 4.5M12 21L10.5 19.5M12 21L13.5 19.5" />
    
    <!-- Горизонталь -->
    <path d="M3 12H21M3 12L4.5 10.5M3 12L4.5 13.5M21 12L19.5 10.5M21 12L19.5 13.5" />
    
    <!-- Диагональ 1 -->
    <path d="M6 6L18 18M6 6L8.5 6.5M6 6L6.5 8.5M18 18L15.5 17.5M18 18L17.5 15.5" />
    
    <!-- Диагональ 2 -->
    <path d="M18 6L6 18M18 6L15.5 6.5M18 6L17.5 8.5M6 18L8.5 17.5M6 18L6.5 15.5" />
  </g>
</svg>
